<svg width="1920" height="1081" viewBox="0 0 1920 1081" fill="none" xmlns="http://www.w3.org/2000/svg">
<path d="M0 0H1920V1081H0V0Z" fill="#212529"/>
<rect x="252.153" y="751.519" width="50.1892" height="52.8186" transform="rotate(-9.59604 252.153 751.519)" fill="#212529" stroke="#585858" stroke-width="2"/>
<rect x="861.92" y="729.414" width="21.4965" height="27.5851" transform="rotate(45 861.92 729.414)" fill="#212529" stroke="#585858" stroke-width="2"/>
<rect x="1170.92" y="544.414" width="21.4965" height="27.5851" transform="rotate(45 1170.92 544.414)" fill="#212529" stroke="#585858" stroke-width="2"/>
<rect x="651.637" y="776.312" width="49.0591" height="62.2901" transform="rotate(-90 651.637 776.312)" fill="#212529" stroke="#585858" stroke-width="2"/>
<rect x="1417" y="837" width="45" height="58" transform="rotate(-90 1417 837)" fill="#212529" stroke="#585858" stroke-width="2"/>
<rect x="1808.37" y="708.156" width="27.5801" height="35.7619" transform="rotate(-30 1808.37 708.156)" fill="#212529" stroke="#585858" stroke-width="2"/>
<rect x="363.153" y="655.875" width="34.3243" height="36.1543" transform="rotate(-9.59604 363.153 655.875)" fill="#212529" stroke="#585858" stroke-width="2"/>
<rect x="584.717" y="968.397" width="34.3243" height="36.1543" transform="rotate(36.1346 584.717 968.397)" fill="#212529" stroke="#585858" stroke-width="2"/>
<rect x="2.25217" y="945.977" width="162.058" height="170.323" transform="rotate(-72.6974 2.25217 945.977)" fill="#212529" stroke="#585858" stroke-width="2"/>
<rect x="443.961" y="729.081" width="139.571" height="139.571" transform="rotate(4.88246 443.961 729.081)" fill="#212529" stroke="#585858" stroke-width="2"/>
<rect x="993.783" y="672.001" width="243.583" height="243.583" transform="rotate(15.4237 993.783 672.001)" fill="#212529" stroke="#585858" stroke-width="2"/>
<rect x="1217.37" y="872.979" width="117.226" height="117.226" transform="rotate(-30 1217.37 872.979)" fill="#212529" stroke="#585858" stroke-width="2"/>
<rect x="1620.57" y="715.366" width="156.404" height="156.404" transform="rotate(30 1620.57 715.366)" fill="#212529" stroke="#585858" stroke-width="2"/>
<rect x="663.153" y="865.575" width="158.5" height="166.587" transform="rotate(-9.59604 663.153 865.575)" fill="#212529" stroke="#585858" stroke-width="2"/>
<mask id="path-16-inside-1" fill="white">
<path fill-rule="evenodd" clip-rule="evenodd" d="M193 1080.54L420.992 918L537.199 1081H193.327L193.327 1081L193 1080.54Z"/>
</mask>
<path fill-rule="evenodd" clip-rule="evenodd" d="M193 1080.54L420.992 918L537.199 1081H193.327L193.327 1081L193 1080.54Z" fill="#212529"/>
<path d="M420.992 918L422.62 916.839L421.459 915.21L419.831 916.371L420.992 918ZM193 1080.54L191.839 1078.91L190.21 1080.07L191.371 1081.7L193 1080.54ZM537.199 1081V1083H541.081L538.828 1079.84L537.199 1081ZM193.327 1081L191.698 1082.16L192.296 1083H193.327V1081ZM193.327 1081L194.955 1079.84L194.955 1079.84L193.327 1081ZM419.831 916.371L191.839 1078.91L194.161 1082.17L422.153 919.629L419.831 916.371ZM538.828 1079.84L422.62 916.839L419.363 919.161L535.571 1082.16L538.828 1079.84ZM193.327 1083H537.199V1079H193.327V1083ZM191.698 1082.16L191.698 1082.16L194.955 1079.84L194.955 1079.84L191.698 1082.16ZM191.371 1081.7L191.698 1082.16L194.955 1079.84L194.629 1079.38L191.371 1081.7Z" fill="#585858" mask="url(#path-16-inside-1)"/>
<mask id="path-18-inside-2" fill="white">
<path fill-rule="evenodd" clip-rule="evenodd" d="M98.5378 1081L44.6425 1067L41.0059 1081H98.5378Z"/>
</mask>
<path fill-rule="evenodd" clip-rule="evenodd" d="M98.5378 1081L44.6425 1067L41.0059 1081H98.5378Z" fill="#212529"/>
<path d="M44.6425 1067L45.1454 1065.06L43.2096 1064.56L42.7068 1066.5L44.6425 1067ZM98.5378 1081V1083L99.0406 1079.06L98.5378 1081ZM41.0059 1081L39.0701 1080.5L38.42 1083H41.0059V1081ZM44.1397 1068.94L98.0349 1082.94L99.0406 1079.06L45.1454 1065.06L44.1397 1068.94ZM42.9416 1081.5L46.5783 1067.5L42.7068 1066.5L39.0701 1080.5L42.9416 1081.5ZM41.0059 1083H98.5378V1079H41.0059V1083Z" fill="#585858" mask="url(#path-18-inside-2)"/>
<mask id="path-20-inside-3" fill="white">
<path fill-rule="evenodd" clip-rule="evenodd" d="M596.485 1081H685.527L670.892 1048L596.485 1081Z"/>
</mask>
<path fill-rule="evenodd" clip-rule="evenodd" d="M596.485 1081H685.527L670.892 1048L596.485 1081Z" fill="#212529"/>
<path d="M596.485 1081L595.674 1079.17L596.485 1083V1081ZM685.527 1081V1083H688.602L687.356 1080.19L685.527 1081ZM670.892 1048L672.72 1047.19L671.909 1045.36L670.081 1046.17L670.892 1048ZM596.485 1083H685.527V1079H596.485V1083ZM669.063 1048.81L683.699 1081.81L687.356 1080.19L672.72 1047.19L669.063 1048.81ZM597.296 1082.83L671.703 1049.83L670.081 1046.17L595.674 1079.17L597.296 1082.83Z" fill="#585858" mask="url(#path-20-inside-3)"/>
<mask id="path-22-inside-4" fill="white">
<path fill-rule="evenodd" clip-rule="evenodd" d="M978.867 1045L938 1075.33L942.207 1081H1005.59L978.867 1045Z"/>
</mask>
<path fill-rule="evenodd" clip-rule="evenodd" d="M978.867 1045L938 1075.33L942.207 1081H1005.59L978.867 1045Z" fill="#212529"/>
<path d="M938 1075.33L936.808 1073.73L935.202 1074.92L936.394 1076.52L938 1075.33ZM978.867 1045L980.473 1043.81L979.281 1042.2L977.675 1043.39L978.867 1045ZM942.207 1081L940.601 1082.19L941.201 1083H942.207V1081ZM1005.59 1081V1083H1009.56L1007.19 1079.81L1005.59 1081ZM939.192 1076.94L980.059 1046.61L977.675 1043.39L936.808 1073.73L939.192 1076.94ZM943.813 1079.81L939.606 1074.14L936.394 1076.52L940.601 1082.19L943.813 1079.81ZM942.207 1083H1005.59V1079H942.207V1083ZM977.261 1046.19L1003.98 1082.19L1007.19 1079.81L980.473 1043.81L977.261 1046.19Z" fill="#585858" mask="url(#path-22-inside-4)"/>
<mask id="path-24-inside-5" fill="white">
<path fill-rule="evenodd" clip-rule="evenodd" d="M1489 996H1284V1081H1489V996Z"/>
</mask>
<path fill-rule="evenodd" clip-rule="evenodd" d="M1489 996H1284V1081H1489V996Z" fill="#212529"/>
<path d="M1284 996V994H1282V996H1284ZM1489 996H1491V994H1489V996ZM1284 1081H1282V1083H1284V1081ZM1489 1081V1083H1491V1081H1489ZM1284 998H1489V994H1284V998ZM1286 1081V996H1282V1081H1286ZM1284 1083H1489V1079H1284V1083ZM1487 996V1081H1491V996H1487Z" fill="#585858" mask="url(#path-24-inside-5)"/>
<mask id="path-26-inside-6" fill="white">
<path fill-rule="evenodd" clip-rule="evenodd" d="M1920 1009.37L1861.71 976L1800.58 1081H1920V1009.37Z"/>
</mask>
<path fill-rule="evenodd" clip-rule="evenodd" d="M1920 1009.37L1861.71 976L1800.58 1081H1920V1009.37Z" fill="#212529"/>
<path d="M1920 1009.37H1922V1008.21L1920.99 1007.63L1920 1009.37ZM1861.71 976L1862.71 974.264L1860.98 973.278L1859.99 974.994L1861.71 976ZM1800.58 1081L1798.85 1079.99L1797.1 1083H1800.58V1081ZM1920 1081V1083H1922V1081H1920ZM1920.99 1007.63L1862.71 974.264L1860.72 977.736L1919.01 1011.11L1920.99 1007.63ZM1859.99 974.994L1798.85 1079.99L1802.31 1082.01L1863.44 977.006L1859.99 974.994ZM1800.58 1083H1920V1079H1800.58V1083ZM1922 1081V1009.37H1918V1081H1922Z" fill="#585858" mask="url(#path-26-inside-6)"/>
</svg>
