<svg width="1923" height="535" viewBox="0 0 1923 535" fill="none" xmlns="http://www.w3.org/2000/svg">
<rect width="1920" height="535" fill="#212529"/>
<mask id="path-2-inside-1_220_111" fill="white">
<path fill-rule="evenodd" clip-rule="evenodd" d="M1623.35 0L1649.56 98.16L1747.89 0H1623.35Z"/>
</mask>
<path fill-rule="evenodd" clip-rule="evenodd" d="M1623.35 0L1649.56 98.16L1747.89 0H1623.35Z" fill="#212529"/>
<path d="M1649.56 98.16L1647.63 98.676L1648.52 102.023L1650.97 99.5755L1649.56 98.16ZM1623.35 0V-2H1620.74L1621.42 0.515946L1623.35 0ZM1747.89 0L1749.3 1.41545L1752.72 -2H1747.89V0ZM1651.49 97.6441L1625.28 -0.515946L1621.42 0.515946L1647.63 98.676L1651.49 97.6441ZM1746.48 -1.41545L1648.14 96.7446L1650.97 99.5755L1749.3 1.41545L1746.48 -1.41545ZM1747.89 -2H1623.35V2H1747.89V-2Z" fill="#585858" mask="url(#path-2-inside-1_220_111)"/>
<mask id="path-4-inside-2_220_111" fill="white">
<path fill-rule="evenodd" clip-rule="evenodd" d="M1920 266.748L1899.26 222.276L1827.75 324.409L1920 332.482V266.748Z"/>
</mask>
<path fill-rule="evenodd" clip-rule="evenodd" d="M1920 266.748L1899.26 222.276L1827.75 324.409L1920 332.482V266.748Z" fill="#212529"/>
<path d="M1899.26 222.276L1901.08 221.431L1899.61 218.291L1897.63 221.129L1899.26 222.276ZM1920 266.748H1922V266.305L1921.81 265.903L1920 266.748ZM1827.75 324.409L1826.11 323.261L1824.12 326.099L1827.57 326.401L1827.75 324.409ZM1920 332.482L1919.83 334.475L1922 334.665V332.482H1920ZM1897.45 223.121L1918.19 267.593L1921.81 265.903L1901.08 221.431L1897.45 223.121ZM1829.38 325.556L1900.9 223.423L1897.63 221.129L1826.11 323.261L1829.38 325.556ZM1920.17 330.49L1827.92 322.416L1827.57 326.401L1919.83 334.475L1920.17 330.49ZM1922 332.482V266.748H1918V332.482H1922Z" fill="#585858" mask="url(#path-4-inside-2_220_111)"/>
<path d="M1668.06 210.813L1751.61 91.4986L1813.16 223.513L1668.06 210.813Z" fill="#212529" stroke="#585858" stroke-width="2"/>
<path d="M1652.32 374.829L1761.41 336.219L1740.31 449.999L1652.32 374.829Z" fill="#212529" stroke="#585858" stroke-width="2"/>
<path d="M1575.4 498.649L1611.69 402.818L1676.54 482.156L1575.4 498.649Z" fill="#212529" stroke="#585858" stroke-width="2"/>
<path d="M1482.9 99.2103L1474.87 37.071L1532.7 61.1828L1482.9 99.2103Z" fill="#212529" stroke="#585858" stroke-width="2"/>
<path d="M1555.43 213.125L1543.94 124.217L1626.68 158.716L1555.43 213.125Z" fill="#212529" stroke="#585858" stroke-width="2"/>
<path d="M1458.21 298.891L1451.13 244.146L1502.08 265.389L1458.21 298.891Z" fill="#212529" stroke="#585858" stroke-width="2"/>
<path d="M1309.92 79.3929L1321.19 53.9196L1337.62 76.4182L1309.92 79.3929Z" fill="#212529" stroke="#585858" stroke-width="2"/>
<path d="M1364.36 173.113L1381.48 167.873L1377.46 185.317L1364.36 173.113Z" fill="#212529" stroke="#585858" stroke-width="2"/>
<path d="M1319.3 475.906L1317.3 458.115L1333.71 465.283L1319.3 475.906Z" fill="#212529" stroke="#585858" stroke-width="2"/>
<path d="M1241.12 393.783L1253.78 381.125L1258.42 398.417L1241.12 393.783Z" fill="#212529" stroke="#585858" stroke-width="2"/>
<path d="M1494.53 353.099L1563.93 311.378L1565.36 392.346L1494.53 353.099Z" fill="#212529" stroke="#585858" stroke-width="2"/>
<path d="M1383.71 388.162L1378.7 349.473L1414.71 364.485L1383.71 388.162Z" fill="#212529" stroke="#585858" stroke-width="2"/>
<mask id="path-18-inside-3_220_111" fill="white">
<path fill-rule="evenodd" clip-rule="evenodd" d="M1479.51 535L1456.89 486.88L1423.42 535H1479.51Z"/>
</mask>
<path fill-rule="evenodd" clip-rule="evenodd" d="M1479.51 535L1456.89 486.88L1423.42 535H1479.51Z" fill="#212529"/>
<path d="M1456.89 486.88L1458.7 486.029L1457.23 482.894L1455.25 485.738L1456.89 486.88ZM1479.51 535V537H1482.66L1481.32 534.149L1479.51 535ZM1423.42 535L1421.78 533.858L1419.59 537H1423.42V535ZM1455.08 487.731L1477.7 535.851L1481.32 534.149L1458.7 486.029L1455.08 487.731ZM1425.06 536.142L1458.53 488.022L1455.25 485.738L1421.78 533.858L1425.06 536.142ZM1423.42 537H1479.51V533H1423.42V537Z" fill="#585858" mask="url(#path-18-inside-3_220_111)"/>
<mask id="path-20-inside-4_220_111" fill="white">
<path fill-rule="evenodd" clip-rule="evenodd" d="M1922.81 535L1870.33 399.648L1761.47 535H1922.81Z"/>
</mask>
<path fill-rule="evenodd" clip-rule="evenodd" d="M1922.81 535L1870.33 399.648L1761.47 535H1922.81Z" fill="#212529"/>
<path d="M1870.33 399.648L1872.2 398.925L1870.95 395.696L1868.78 398.395L1870.33 399.648ZM1922.81 535V537H1925.73L1924.67 534.277L1922.81 535ZM1761.47 535L1759.91 533.746L1757.3 537H1761.47V535ZM1868.47 400.371L1920.94 535.723L1924.67 534.277L1872.2 398.925L1868.47 400.371ZM1763.03 536.253L1871.89 400.902L1868.78 398.395L1759.91 533.746L1763.03 536.253ZM1761.47 537H1922.81V533H1761.47V537Z" fill="#585858" mask="url(#path-20-inside-4_220_111)"/>
<mask id="path-22-inside-5_220_111" fill="white">
<path fill-rule="evenodd" clip-rule="evenodd" d="M1920 45.3344L1804.74 36.0924L1884.28 203.485L1920 151.669V45.3344Z"/>
</mask>
<path fill-rule="evenodd" clip-rule="evenodd" d="M1920 45.3344L1804.74 36.0924L1884.28 203.485L1920 151.669V45.3344Z" fill="#212529"/>
<path d="M1804.74 36.0924L1804.89 34.0988L1801.44 33.8219L1802.93 36.9508L1804.74 36.0924ZM1920 45.3344H1922V43.4884L1920.16 43.3408L1920 45.3344ZM1884.28 203.485L1882.47 204.343L1883.96 207.472L1885.92 204.62L1884.28 203.485ZM1920 151.669L1921.65 152.804L1922 152.292V151.669H1920ZM1804.58 38.086L1919.84 47.328L1920.16 43.3408L1804.89 34.0988L1804.58 38.086ZM1886.08 202.627L1806.54 35.234L1802.93 36.9508L1882.47 204.343L1886.08 202.627ZM1918.35 150.534L1882.63 202.35L1885.92 204.62L1921.65 152.804L1918.35 150.534ZM1922 151.669V45.3344H1918V151.669H1922Z" fill="#585858" mask="url(#path-22-inside-5_220_111)"/>
</svg>
