<svg width="1921" height="1350" viewBox="0 0 1921 1350" fill="none" xmlns="http://www.w3.org/2000/svg">
<rect width="1920" height="1350" fill="#414549"/>
<circle cx="218.5" cy="132.5" r="37.5" fill="#414549" stroke="#585858" stroke-width="2"/>
<circle cx="282.5" cy="259.5" r="24.5" fill="#414549" stroke="#585858" stroke-width="2"/>
<circle cx="154.5" cy="390.5" r="24.5" fill="#414549" stroke="#585858" stroke-width="2"/>
<circle cx="472" cy="195" r="52" fill="#414549" stroke="#585858" stroke-width="2"/>
<circle cx="677.5" cy="233.5" r="44.5" fill="#414549" stroke="#585858" stroke-width="2"/>
<circle cx="830.5" cy="152.5" r="30.5" fill="#414549" stroke="#585858" stroke-width="2"/>
<circle cx="1011.5" cy="278.5" r="48.5" fill="#414549" stroke="#585858" stroke-width="2"/>
<circle cx="1284" cy="224" r="39" fill="#414549" stroke="#585858" stroke-width="2"/>
<circle cx="1355.5" cy="113.5" r="15.5" fill="#414549" stroke="#585858" stroke-width="2"/>
<circle cx="1716.5" cy="158.5" r="51.5" fill="#414549" stroke="#585858" stroke-width="2"/>
<circle cx="1664" cy="345" r="27" fill="#414549" stroke="#585858" stroke-width="2"/>
<circle cx="1527" cy="189" r="35" fill="#414549" stroke="#585858" stroke-width="2"/>
<circle cx="84.5" cy="172.5" r="18.5" fill="#414549" stroke="#585858" stroke-width="2"/>
<circle cx="27" cy="86" r="7" fill="#414549" stroke="#585858" stroke-width="2"/>
<mask id="path-16-inside-1" fill="white">
<path fill-rule="evenodd" clip-rule="evenodd" d="M0 302C16.0163 302 29 289.016 29 273C29 256.984 16.0163 244 0 244V302Z"/>
</mask>
<path fill-rule="evenodd" clip-rule="evenodd" d="M0 302C16.0163 302 29 289.016 29 273C29 256.984 16.0163 244 0 244V302Z" fill="#414549"/>
<path d="M0 302H-2V304H0V302ZM0 244V242H-2V244H0ZM27 273C27 287.912 14.9117 300 0 300V304C17.1208 304 31 290.121 31 273H27ZM0 246C14.9117 246 27 258.088 27 273H31C31 255.879 17.1208 242 0 242V246ZM-2 244V302H2V244H-2Z" fill="#585858" mask="url(#path-16-inside-1)"/>
<mask id="path-18-inside-2" fill="white">
<path fill-rule="evenodd" clip-rule="evenodd" d="M27.0499 0C27.0167 0.829214 27 1.66265 27 2.5C27 36.4655 54.5345 64 88.5 64C122.466 64 150 36.4655 150 2.5C150 1.66265 149.983 0.829214 149.95 0H27.0499Z"/>
</mask>
<path fill-rule="evenodd" clip-rule="evenodd" d="M27.0499 0C27.0167 0.829214 27 1.66265 27 2.5C27 36.4655 54.5345 64 88.5 64C122.466 64 150 36.4655 150 2.5C150 1.66265 149.983 0.829214 149.95 0H27.0499Z" fill="#414549"/>
<path d="M27.0499 0V-2H25.1283L25.0515 -0.079898L27.0499 0ZM149.95 0L151.949 -0.0798907L151.872 -2H149.95V0ZM29 2.5C29 1.6893 29.0162 0.882502 29.0483 0.079898L25.0515 -0.079898C25.0173 0.775926 25 1.636 25 2.5H29ZM88.5 62C55.6391 62 29 35.3609 29 2.5H25C25 37.5701 53.4299 66 88.5 66V62ZM148 2.5C148 35.3609 121.361 62 88.5 62V66C123.57 66 152 37.5701 152 2.5H148ZM147.952 0.0798907C147.984 0.882506 148 1.68931 148 2.5H152C152 1.636 151.983 0.775922 151.949 -0.0798907L147.952 0.0798907ZM149.95 -2H27.0499V2H149.95V-2Z" fill="#585858" mask="url(#path-18-inside-2)"/>
<mask id="path-20-inside-3" fill="white">
<path fill-rule="evenodd" clip-rule="evenodd" d="M235.173 0C241.372 30.4616 261.3 57.7471 291.521 72.1568C342.619 96.5208 403.793 74.8487 428.157 23.7507C431.847 16.0107 434.482 8.03947 436.117 0H235.173Z"/>
</mask>
<path fill-rule="evenodd" clip-rule="evenodd" d="M235.173 0C241.372 30.4616 261.3 57.7471 291.521 72.1568C342.619 96.5208 403.793 74.8487 428.157 23.7507C431.847 16.0107 434.482 8.03947 436.117 0H235.173Z" fill="#414549"/>
<path d="M291.521 72.1568L290.66 73.9621L290.66 73.9621L291.521 72.1568ZM235.173 0V-2H232.725L233.213 0.398817L235.173 0ZM428.157 23.7507L429.962 24.6115L429.962 24.6115L428.157 23.7507ZM436.117 0L438.077 0.398747L438.565 -2H436.117V0ZM292.382 70.3515C262.752 56.2236 243.212 29.474 237.133 -0.398817L233.213 0.398817C239.532 31.4493 259.848 59.2707 290.66 73.9621L292.382 70.3515ZM426.351 22.89C402.463 72.9908 342.483 94.2401 292.382 70.3515L290.66 73.9621C342.755 98.8015 405.123 76.7065 429.962 24.6115L426.351 22.89ZM434.157 -0.398747C432.554 7.48226 429.971 15.2982 426.351 22.89L429.962 24.6115C433.723 16.7232 436.409 8.59668 438.077 0.398747L434.157 -0.398747ZM436.117 -2H235.173V2H436.117V-2Z" fill="#585858" mask="url(#path-20-inside-3)"/>
<mask id="path-22-inside-4" fill="white">
<path fill-rule="evenodd" clip-rule="evenodd" d="M500.409 0C490.961 12.3174 485.346 27.7288 485.346 44.4516C485.346 84.8264 518.077 117.557 558.452 117.557C598.826 117.557 631.557 84.8264 631.557 44.4516C631.557 27.7288 625.942 12.3174 616.494 0H500.409Z"/>
</mask>
<path fill-rule="evenodd" clip-rule="evenodd" d="M500.409 0C490.961 12.3174 485.346 27.7288 485.346 44.4516C485.346 84.8264 518.077 117.557 558.452 117.557C598.826 117.557 631.557 84.8264 631.557 44.4516C631.557 27.7288 625.942 12.3174 616.494 0H500.409Z" fill="#414549"/>
<path d="M500.409 0V-2H499.422L498.822 -1.21719L500.409 0ZM616.494 0L618.081 -1.21719L617.481 -2H616.494V0ZM487.346 44.4516C487.346 28.1841 492.807 13.1976 501.996 1.21719L498.822 -1.21719C489.116 11.4372 483.346 27.2735 483.346 44.4516H487.346ZM558.452 115.557C519.181 115.557 487.346 83.7218 487.346 44.4516H483.346C483.346 85.931 516.972 119.557 558.452 119.557V115.557ZM629.557 44.4516C629.557 83.7218 597.722 115.557 558.452 115.557V119.557C599.931 119.557 633.557 85.931 633.557 44.4516H629.557ZM614.907 1.21719C624.096 13.1976 629.557 28.1841 629.557 44.4516H633.557C633.557 27.2735 627.787 11.4372 618.081 -1.21719L614.907 1.21719ZM616.494 -2H500.409V2H616.494V-2Z" fill="#585858" mask="url(#path-22-inside-4)"/>
<mask id="path-24-inside-5" fill="white">
<path fill-rule="evenodd" clip-rule="evenodd" d="M701.536 0C705.924 36.1796 736.741 64.2103 774.105 64.2103C811.469 64.2103 842.286 36.1796 846.675 0H701.536Z"/>
</mask>
<path fill-rule="evenodd" clip-rule="evenodd" d="M701.536 0C705.924 36.1796 736.741 64.2103 774.105 64.2103C811.469 64.2103 842.286 36.1796 846.675 0H701.536Z" fill="#414549"/>
<path d="M701.536 0V-2H699.278L699.55 0.240832L701.536 0ZM846.675 0L848.66 0.240832L848.932 -2H846.675V0ZM774.105 62.2103C737.765 62.2103 707.789 34.9469 703.521 -0.240832L699.55 0.240832C704.059 37.4123 735.718 66.2103 774.105 66.2103V62.2103ZM844.689 -0.240832C840.421 34.9469 810.445 62.2103 774.105 62.2103V66.2103C812.493 66.2103 844.151 37.4123 848.66 0.240832L844.689 -0.240832ZM846.675 -2H701.536V2H846.675V-2Z" fill="#585858" mask="url(#path-24-inside-5)"/>
<mask id="path-26-inside-6" fill="white">
<path fill-rule="evenodd" clip-rule="evenodd" d="M1100.11 0C1085.1 17.0793 1076 39.4769 1076 64C1076 117.572 1119.43 161 1173 161C1226.57 161 1270 117.572 1270 64C1270 39.4769 1260.9 17.0793 1245.89 0H1100.11Z"/>
</mask>
<path fill-rule="evenodd" clip-rule="evenodd" d="M1100.11 0C1085.1 17.0793 1076 39.4769 1076 64C1076 117.572 1119.43 161 1173 161C1226.57 161 1270 117.572 1270 64C1270 39.4769 1260.9 17.0793 1245.89 0H1100.11Z" fill="#414549"/>
<path d="M1100.11 0V-2H1099.2L1098.61 -1.32016L1100.11 0ZM1245.89 0L1247.39 -1.32016L1246.8 -2H1245.89V0ZM1078 64C1078 39.9812 1086.91 18.0485 1101.61 1.32016L1098.61 -1.32016C1083.29 16.1101 1074 38.9727 1074 64H1078ZM1173 159C1120.53 159 1078 116.467 1078 64H1074C1074 118.676 1118.32 163 1173 163V159ZM1268 64C1268 116.467 1225.47 159 1173 159V163C1227.68 163 1272 118.676 1272 64H1268ZM1244.39 1.32016C1259.09 18.0485 1268 39.9812 1268 64H1272C1272 38.9727 1262.71 16.1101 1247.39 -1.32016L1244.39 1.32016ZM1245.89 -2H1100.11V2H1245.89V-2Z" fill="#585858" mask="url(#path-26-inside-6)"/>
<mask id="path-28-inside-7" fill="white">
<path fill-rule="evenodd" clip-rule="evenodd" d="M1325 0C1342.73 23.1047 1370.63 38 1402 38C1433.37 38 1461.27 23.1047 1479 0H1325Z"/>
</mask>
<path fill-rule="evenodd" clip-rule="evenodd" d="M1325 0C1342.73 23.1047 1370.63 38 1402 38C1433.37 38 1461.27 23.1047 1479 0H1325Z" fill="#414549"/>
<path d="M1325 0V-2H1320.94L1323.41 1.21758L1325 0ZM1479 0L1480.59 1.21758L1483.06 -2H1479V0ZM1402 36C1371.27 36 1343.95 21.4151 1326.59 -1.21758L1323.41 1.21758C1341.51 24.7943 1369.98 40 1402 40V36ZM1477.41 -1.21758C1460.04 21.4151 1432.73 36 1402 36V40C1434.02 40 1462.49 24.7943 1480.59 1.21758L1477.41 -1.21758ZM1479 -2H1325V2H1479V-2Z" fill="#585858" mask="url(#path-28-inside-7)"/>
<mask id="path-30-inside-8" fill="white">
<path fill-rule="evenodd" clip-rule="evenodd" d="M1568.57 0C1572.99 34.4091 1602.39 61 1638 61C1673.61 61 1703.01 34.4091 1707.43 0H1568.57Z"/>
</mask>
<path fill-rule="evenodd" clip-rule="evenodd" d="M1568.57 0C1572.99 34.4091 1602.39 61 1638 61C1673.61 61 1703.01 34.4091 1707.43 0H1568.57Z" fill="#414549"/>
<path d="M1568.57 0V-2H1566.3L1566.59 0.254617L1568.57 0ZM1707.43 0L1709.41 0.254618L1709.7 -2H1707.43V0ZM1638 59C1603.41 59 1574.85 33.1694 1570.56 -0.254617L1566.59 0.254617C1571.13 35.6489 1601.37 63 1638 63V59ZM1705.44 -0.254618C1701.15 33.1694 1672.59 59 1638 59V63C1674.63 63 1704.87 35.6489 1709.41 0.254618L1705.44 -0.254618ZM1707.43 -2H1568.57V2H1707.43V-2Z" fill="#585858" mask="url(#path-30-inside-8)"/>
<mask id="path-32-inside-9" fill="white">
<path fill-rule="evenodd" clip-rule="evenodd" d="M1921 0H1792.72C1787.1 13.5538 1784 28.4149 1784 44C1784 107.513 1835.49 159 1899 159C1906.52 159 1913.88 158.277 1921 156.898V0Z"/>
</mask>
<path fill-rule="evenodd" clip-rule="evenodd" d="M1921 0H1792.72C1787.1 13.5538 1784 28.4149 1784 44C1784 107.513 1835.49 159 1899 159C1906.52 159 1913.88 158.277 1921 156.898V0Z" fill="#414549"/>
<path d="M1921 0H1923V-2H1921V0ZM1792.72 0V-2H1791.38L1790.87 -0.765747L1792.72 0ZM1921 156.898L1921.38 158.861L1923 158.548V156.898H1921ZM1921 -2H1792.72V2H1921V-2ZM1790.87 -0.765747C1785.15 13.0266 1782 28.1475 1782 44H1786C1786 28.6822 1789.05 14.0811 1794.57 0.765747L1790.87 -0.765747ZM1782 44C1782 108.617 1834.38 161 1899 161V157C1836.59 157 1786 106.408 1786 44H1782ZM1899 161C1906.65 161 1914.13 160.265 1921.38 158.861L1920.62 154.934C1913.62 156.29 1906.4 157 1899 157V161ZM1923 156.898V0H1919V156.898H1923Z" fill="#585858" mask="url(#path-32-inside-9)"/>
<mask id="path-34-inside-10" fill="white">
<path fill-rule="evenodd" clip-rule="evenodd" d="M1921 260.002C1885.06 260.271 1856 289.492 1856 325.5C1856 361.508 1885.06 390.729 1921 390.998V260.002Z"/>
</mask>
<path fill-rule="evenodd" clip-rule="evenodd" d="M1921 260.002C1885.06 260.271 1856 289.492 1856 325.5C1856 361.508 1885.06 390.729 1921 390.998V260.002Z" fill="#414549"/>
<path d="M1921 260.002H1923V257.987L1920.99 258.002L1921 260.002ZM1921 390.998L1920.99 392.998L1923 393.013V390.998H1921ZM1858 325.5C1858 290.592 1886.17 262.262 1921.01 262.002L1920.99 258.002C1883.94 258.279 1854 288.393 1854 325.5H1858ZM1921.01 388.998C1886.17 388.738 1858 360.408 1858 325.5H1854C1854 362.607 1883.94 392.721 1920.99 392.998L1921.01 388.998ZM1923 390.998V260.002H1919V390.998H1923Z" fill="#585858" mask="url(#path-34-inside-10)"/>
</svg>
