<svg width="92" height="85" viewBox="0 0 92 85" fill="none" xmlns="http://www.w3.org/2000/svg">
<path fill-rule="evenodd" clip-rule="evenodd" d="M0 10C0 4.47715 4.47715 0 10 0H82C87.5229 0 92 4.47715 92 10V75C92 80.5229 87.5229 85 82 85H10C4.47715 85 0 80.5229 0 75V10ZM6 17H86V75C86 76.6569 84.6569 78 83 78H9C7.34315 78 6 76.6569 6 75V17Z" fill="white"/>
<path fill-rule="evenodd" clip-rule="evenodd" d="M26.5 56C28.3209 56 30.0509 55.6262 31.6112 54.9542L30.52 50.7549C29.3581 51.5433 27.9791 52 26.5 52C22.3579 52 19 48.4183 19 44C19 39.5817 22.3579 36 26.5 36C27.9349 36 29.2757 36.4298 30.4154 37.1754L31.5007 32.9988C29.9694 32.3564 28.278 32 26.5 32C19.5964 32 14 37.3726 14 44C14 50.6274 19.5964 56 26.5 56Z" fill="white"/>
<circle cx="38.5" cy="38.5" r="3.5" fill="white"/>
<circle cx="38.5" cy="52.5" r="3.5" fill="white"/>
<path fill-rule="evenodd" clip-rule="evenodd" d="M46.3071 32L57.0002 57H64.0002L53.3072 32H46.3071Z" fill="white"/>
</svg>